<svg width="7" height="11" viewBox="0 0 7 11" fill="none" xmlns="http://www.w3.org/2000/svg">
<path d="M4.19288 5.64887L1.05326 8.78849C0.888072 8.95466 0.795354 9.17945 0.795354 9.41375C0.795354 9.64806 0.888072 9.87285 1.05326 10.039C1.13571 10.1221 1.2338 10.1881 1.34188 10.2332C1.44995 10.2782 1.56588 10.3014 1.68296 10.3014C1.80004 10.3014 1.91596 10.2782 2.02404 10.2332C2.13211 10.1881 2.23021 10.1221 2.31265 10.039L6.07311 6.27857C6.15623 6.19612 6.22221 6.09802 6.26724 5.98995C6.31227 5.88187 6.33545 5.76595 6.33545 5.64887C6.33545 5.53179 6.31227 5.41586 6.26724 5.30779C6.22221 5.19971 6.15623 5.10162 6.07311 5.01917L2.31266 1.21437C2.22978 1.13217 2.1315 1.06714 2.02344 1.023C1.91539 0.978867 1.79968 0.956494 1.68296 0.957169C1.56623 0.956494 1.45053 0.978867 1.34247 1.023C1.23441 1.06714 1.13613 1.13217 1.05326 1.21437C0.888073 1.38054 0.795355 1.60533 0.795355 1.83963C0.795355 2.07394 0.888073 2.29873 1.05326 2.4649L4.19288 5.64887Z" fill="#6B6B6B"/>
</svg>
