<svg width="15" height="19" viewBox="0 0 15 19" fill="none" xmlns="http://www.w3.org/2000/svg">
<path d="M7.70956 18.4884C8.70496 18.4884 9.51938 17.674 9.51938 16.6786H5.89974C5.89974 17.674 6.70511 18.4884 7.70956 18.4884ZM13.139 13.0589V8.53439C13.139 5.75631 11.655 3.43069 9.06693 2.81535V2.20002C9.06693 1.44894 8.46064 0.842651 7.70956 0.842651C6.95849 0.842651 6.3522 1.44894 6.3522 2.20002V2.81535C3.7551 3.43069 2.2801 5.74726 2.2801 8.53439V13.0589L1.11277 14.2263C0.542674 14.7964 0.940835 15.7737 1.7462 15.7737H13.6639C14.4692 15.7737 14.8764 14.7964 14.3064 14.2263L13.139 13.0589Z" fill="#8B8E9C"/>
</svg>
