<svg width="28" height="28" viewBox="0 0 28 28" fill="none" xmlns="http://www.w3.org/2000/svg">
<path d="M1.75 6.5625C1.63407 6.56285 1.523 6.60905 1.44102 6.69102C1.35905 6.773 1.31285 6.88407 1.3125 7H2.1875C2.18715 6.88407 2.14095 6.773 2.05898 6.69102C1.977 6.60905 1.86593 6.56285 1.75 6.5625ZM0.875 11.375H7.875V7.875H0.875C0.760085 7.87497 0.646291 7.89758 0.540118 7.94155C0.433945 7.98551 0.337475 8.04996 0.256218 8.13122C0.174961 8.21247 0.11051 8.30895 0.0665469 8.41512C0.0225842 8.52129 -2.86847e-05 8.63509 5.47199e-08 8.75V10.5C-2.86847e-05 10.6149 0.0225842 10.7287 0.0665469 10.8349C0.11051 10.9411 0.174961 11.0375 0.256218 11.1188C0.337475 11.2 0.433945 11.2645 0.540118 11.3085C0.646291 11.3524 0.760085 11.375 0.875 11.375ZM26.0312 6.5625C25.9153 6.56285 25.8042 6.60905 25.7223 6.69102C25.6403 6.773 25.5941 6.88407 25.5938 7H26.4688C26.4684 6.88407 26.4222 6.773 26.3402 6.69102C26.2583 6.60905 26.1472 6.56285 26.0312 6.5625ZM27.125 7.875H20.125V11.375H27.125C27.2399 11.375 27.3537 11.3524 27.4599 11.3085C27.5661 11.2645 27.6625 11.2 27.7438 11.1188C27.825 11.0375 27.8895 10.9411 27.9335 10.8349C27.9774 10.7287 28 10.6149 28 10.5V8.75C28 8.63509 27.9774 8.52129 27.9335 8.41512C27.8895 8.30895 27.825 8.21247 27.7438 8.13122C27.6625 8.04996 27.5661 7.98551 27.4599 7.94155C27.3537 7.89758 27.2399 7.87497 27.125 7.875ZM26.0312 17.9375C25.9545 17.9375 25.8791 17.9577 25.8127 17.9961C25.7462 18.0345 25.6911 18.0897 25.6528 18.1562H26.4097C26.3714 18.0897 26.3163 18.0345 26.2498 17.9961C26.1834 17.9577 26.108 17.9375 26.0312 17.9375ZM27.125 19.0312H21.2188V22.5312H27.125C27.2399 22.5313 27.3537 22.5087 27.4599 22.4647C27.5661 22.4207 27.6625 22.3563 27.7438 22.275C27.825 22.1938 27.8895 22.0973 27.9335 21.9911C27.9774 21.885 28 21.7712 28 21.6562V19.9062C28 19.7913 27.9774 19.6775 27.9335 19.5714C27.8895 19.4652 27.825 19.3687 27.7438 19.2875C27.6625 19.2062 27.5661 19.1418 27.4599 19.0978C27.3537 19.0538 27.2399 19.0312 27.125 19.0312ZM1.3125 12.6875H2.1875C2.1875 12.5715 2.14141 12.4602 2.05936 12.3781C1.97731 12.2961 1.86603 12.25 1.75 12.25C1.63397 12.25 1.52269 12.2961 1.44064 12.3781C1.35859 12.4602 1.3125 12.5715 1.3125 12.6875ZM7.875 13.5625H0.875C0.760085 13.5625 0.646291 13.5851 0.540118 13.629C0.433945 13.673 0.337475 13.7375 0.256218 13.8187C0.174961 13.9 0.11051 13.9964 0.0665469 14.1026C0.0225842 14.2088 -2.86847e-05 14.3226 5.47199e-08 14.4375V16.1875C-2.86847e-05 16.3024 0.0225842 16.4162 0.0665469 16.5224C0.11051 16.6286 0.174961 16.725 0.256218 16.8063C0.337475 16.8875 0.433945 16.952 0.540118 16.996C0.646291 17.0399 0.760085 17.0625 0.875 17.0625H7.41125C7.55135 16.9465 7.70757 16.8514 7.875 16.7803V13.5625ZM26.0312 12.25C25.9153 12.2503 25.8042 12.2966 25.7223 12.3785C25.6403 12.4605 25.5941 12.5716 25.5938 12.6875H26.4688C26.4684 12.5716 26.4222 12.4605 26.3402 12.3785C26.2583 12.2966 26.1472 12.2503 26.0312 12.25ZM27.125 13.5625H20.125V16.7803C20.2924 16.8514 20.4486 16.9465 20.5888 17.0625H27.125C27.2399 17.0625 27.3537 17.0399 27.4599 16.996C27.5661 16.952 27.6625 16.8875 27.7438 16.8063C27.825 16.725 27.8895 16.6286 27.9335 16.5224C27.9774 16.4162 28 16.3024 28 16.1875V14.4375C28 14.3226 27.9774 14.2088 27.9335 14.1026C27.8895 13.9964 27.825 13.9 27.7438 13.8187C27.6625 13.7375 27.5661 13.673 27.4599 13.629C27.3537 13.5851 27.2399 13.5625 27.125 13.5625ZM10.9375 16.1875V15.3125C10.9375 15.1965 10.9836 15.0852 11.0656 15.0031C11.1477 14.9211 11.259 14.875 11.375 14.875C11.491 14.875 11.6023 14.9211 11.6844 15.0031C11.7664 15.0852 11.8125 15.1965 11.8125 15.3125V16.1875C11.8122 16.3034 11.7659 16.4145 11.684 16.4965C11.602 16.5784 11.4909 16.6247 11.375 16.625H14C13.8841 16.6247 13.773 16.5784 13.691 16.4965C13.6091 16.4145 13.5628 16.3034 13.5625 16.1875V15.3125C13.5625 15.1965 13.6086 15.0852 13.6906 15.0031C13.7727 14.9211 13.884 14.875 14 14.875C14.116 14.875 14.2273 14.9211 14.3094 15.0031C14.3914 15.0852 14.4375 15.1965 14.4375 15.3125V16.1875C14.4372 16.3034 14.3909 16.4145 14.309 16.4965C14.227 16.5784 14.1159 16.6247 14 16.625H16.625C16.5091 16.6247 16.398 16.5784 16.316 16.4965C16.2341 16.4145 16.1878 16.3034 16.1875 16.1875V15.3125C16.1875 15.1965 16.2336 15.0852 16.3156 15.0031C16.3977 14.9211 16.509 14.875 16.625 14.875C16.741 14.875 16.8523 14.9211 16.9344 15.0031C17.0164 15.0852 17.0625 15.1965 17.0625 15.3125V16.1875C17.0622 16.3034 17.0159 16.4145 16.934 16.4965C16.852 16.5784 16.7409 16.6247 16.625 16.625H19.25V0.875C19.25 0.760085 19.2274 0.646291 19.1835 0.540118C19.1395 0.433945 19.075 0.337474 18.9938 0.256218C18.9125 0.174961 18.8161 0.11051 18.7099 0.0665469C18.6037 0.0225842 18.4899 -2.87121e-05 18.375 2.73599e-08H9.625C9.51009 -2.87121e-05 9.39629 0.0225842 9.29012 0.0665469C9.18395 0.11051 9.08747 0.174961 9.00622 0.256218C8.92496 0.337474 8.86051 0.433945 8.81655 0.540118C8.77258 0.646291 8.74997 0.760085 8.75 0.875V16.625H11.375C11.2591 16.6247 11.148 16.5784 11.066 16.4965C10.9841 16.4145 10.9378 16.3034 10.9375 16.1875ZM16.1875 2.1875C16.1875 2.07147 16.2336 1.96019 16.3156 1.87814C16.3977 1.79609 16.509 1.75 16.625 1.75C16.741 1.75 16.8523 1.79609 16.9344 1.87814C17.0164 1.96019 17.0625 2.07147 17.0625 2.1875V3.0625C17.0625 3.17853 17.0164 3.28981 16.9344 3.37186C16.8523 3.45391 16.741 3.5 16.625 3.5C16.509 3.5 16.3977 3.45391 16.3156 3.37186C16.2336 3.28981 16.1875 3.17853 16.1875 3.0625V2.1875ZM16.1875 4.8125C16.1875 4.69647 16.2336 4.58519 16.3156 4.50314C16.3977 4.42109 16.509 4.375 16.625 4.375C16.741 4.375 16.8523 4.42109 16.9344 4.50314C17.0164 4.58519 17.0625 4.69647 17.0625 4.8125V5.6875C17.0625 5.80353 17.0164 5.91481 16.9344 5.99686C16.8523 6.07891 16.741 6.125 16.625 6.125C16.509 6.125 16.3977 6.07891 16.3156 5.99686C16.2336 5.91481 16.1875 5.80353 16.1875 5.6875V4.8125ZM16.1875 7.4375C16.1875 7.32147 16.2336 7.21019 16.3156 7.12814C16.3977 7.04609 16.509 7 16.625 7C16.741 7 16.8523 7.04609 16.9344 7.12814C17.0164 7.21019 17.0625 7.32147 17.0625 7.4375V8.3125C17.0625 8.42853 17.0164 8.53981 16.9344 8.62186C16.8523 8.70391 16.741 8.75 16.625 8.75C16.509 8.75 16.3977 8.70391 16.3156 8.62186C16.2336 8.53981 16.1875 8.42853 16.1875 8.3125V7.4375ZM16.1875 10.0625C16.1875 9.94647 16.2336 9.83519 16.3156 9.75314C16.3977 9.67109 16.509 9.625 16.625 9.625C16.741 9.625 16.8523 9.67109 16.9344 9.75314C17.0164 9.83519 17.0625 9.94647 17.0625 10.0625V10.9375C17.0625 11.0535 17.0164 11.1648 16.9344 11.2469C16.8523 11.3289 16.741 11.375 16.625 11.375C16.509 11.375 16.3977 11.3289 16.3156 11.2469C16.2336 11.1648 16.1875 11.0535 16.1875 10.9375V10.0625ZM16.1875 12.6875C16.1875 12.5715 16.2336 12.4602 16.3156 12.3781C16.3977 12.2961 16.509 12.25 16.625 12.25C16.741 12.25 16.8523 12.2961 16.9344 12.3781C17.0164 12.4602 17.0625 12.5715 17.0625 12.6875V13.5625C17.0625 13.6785 17.0164 13.7898 16.9344 13.8719C16.8523 13.9539 16.741 14 16.625 14C16.509 14 16.3977 13.9539 16.3156 13.8719C16.2336 13.7898 16.1875 13.6785 16.1875 13.5625V12.6875ZM13.5625 2.1875C13.5625 2.07147 13.6086 1.96019 13.6906 1.87814C13.7727 1.79609 13.884 1.75 14 1.75C14.116 1.75 14.2273 1.79609 14.3094 1.87814C14.3914 1.96019 14.4375 2.07147 14.4375 2.1875V3.0625C14.4375 3.17853 14.3914 3.28981 14.3094 3.37186C14.2273 3.45391 14.116 3.5 14 3.5C13.884 3.5 13.7727 3.45391 13.6906 3.37186C13.6086 3.28981 13.5625 3.17853 13.5625 3.0625V2.1875ZM13.5625 4.8125C13.5625 4.69647 13.6086 4.58519 13.6906 4.50314C13.7727 4.42109 13.884 4.375 14 4.375C14.116 4.375 14.2273 4.42109 14.3094 4.50314C14.3914 4.58519 14.4375 4.69647 14.4375 4.8125V5.6875C14.4375 5.80353 14.3914 5.91481 14.3094 5.99686C14.2273 6.07891 14.116 6.125 14 6.125C13.884 6.125 13.7727 6.07891 13.6906 5.99686C13.6086 5.91481 13.5625 5.80353 13.5625 5.6875V4.8125ZM13.5625 7.4375C13.5625 7.32147 13.6086 7.21019 13.6906 7.12814C13.7727 7.04609 13.884 7 14 7C14.116 7 14.2273 7.04609 14.3094 7.12814C14.3914 7.21019 14.4375 7.32147 14.4375 7.4375V8.3125C14.4375 8.42853 14.3914 8.53981 14.3094 8.62186C14.2273 8.70391 14.116 8.75 14 8.75C13.884 8.75 13.7727 8.70391 13.6906 8.62186C13.6086 8.53981 13.5625 8.42853 13.5625 8.3125V7.4375ZM13.5625 10.0625C13.5625 9.94647 13.6086 9.83519 13.6906 9.75314C13.7727 9.67109 13.884 9.625 14 9.625C14.116 9.625 14.2273 9.67109 14.3094 9.75314C14.3914 9.83519 14.4375 9.94647 14.4375 10.0625V10.9375C14.4375 11.0535 14.3914 11.1648 14.3094 11.2469C14.2273 11.3289 14.116 11.375 14 11.375C13.884 11.375 13.7727 11.3289 13.6906 11.2469C13.6086 11.1648 13.5625 11.0535 13.5625 10.9375V10.0625ZM13.5625 12.6875C13.5625 12.5715 13.6086 12.4602 13.6906 12.3781C13.7727 12.2961 13.884 12.25 14 12.25C14.116 12.25 14.2273 12.2961 14.3094 12.3781C14.3914 12.4602 14.4375 12.5715 14.4375 12.6875V13.5625C14.4375 13.6785 14.3914 13.7898 14.3094 13.8719C14.2273 13.9539 14.116 14 14 14C13.884 14 13.7727 13.9539 13.6906 13.8719C13.6086 13.7898 13.5625 13.6785 13.5625 13.5625V12.6875ZM10.9375 2.1875C10.9375 2.07147 10.9836 1.96019 11.0656 1.87814C11.1477 1.79609 11.259 1.75 11.375 1.75C11.491 1.75 11.6023 1.79609 11.6844 1.87814C11.7664 1.96019 11.8125 2.07147 11.8125 2.1875V3.0625C11.8125 3.17853 11.7664 3.28981 11.6844 3.37186C11.6023 3.45391 11.491 3.5 11.375 3.5C11.259 3.5 11.1477 3.45391 11.0656 3.37186C10.9836 3.28981 10.9375 3.17853 10.9375 3.0625V2.1875ZM10.9375 4.8125C10.9375 4.69647 10.9836 4.58519 11.0656 4.50314C11.1477 4.42109 11.259 4.375 11.375 4.375C11.491 4.375 11.6023 4.42109 11.6844 4.50314C11.7664 4.58519 11.8125 4.69647 11.8125 4.8125V5.6875C11.8125 5.80353 11.7664 5.91481 11.6844 5.99686C11.6023 6.07891 11.491 6.125 11.375 6.125C11.259 6.125 11.1477 6.07891 11.0656 5.99686C10.9836 5.91481 10.9375 5.80353 10.9375 5.6875V4.8125ZM10.9375 7.4375C10.9375 7.32147 10.9836 7.21019 11.0656 7.12814C11.1477 7.04609 11.259 7 11.375 7C11.491 7 11.6023 7.04609 11.6844 7.12814C11.7664 7.21019 11.8125 7.32147 11.8125 7.4375V8.3125C11.8125 8.42853 11.7664 8.53981 11.6844 8.62186C11.6023 8.70391 11.491 8.75 11.375 8.75C11.259 8.75 11.1477 8.70391 11.0656 8.62186C10.9836 8.53981 10.9375 8.42853 10.9375 8.3125V7.4375ZM10.9375 10.0625C10.9375 9.94647 10.9836 9.83519 11.0656 9.75314C11.1477 9.67109 11.259 9.625 11.375 9.625C11.491 9.625 11.6023 9.67109 11.6844 9.75314C11.7664 9.83519 11.8125 9.94647 11.8125 10.0625V10.9375C11.8125 11.0535 11.7664 11.1648 11.6844 11.2469C11.6023 11.3289 11.491 11.375 11.375 11.375C11.259 11.375 11.1477 11.3289 11.0656 11.2469C10.9836 11.1648 10.9375 11.0535 10.9375 10.9375V10.0625ZM10.9375 12.6875C10.9375 12.5715 10.9836 12.4602 11.0656 12.3781C11.1477 12.2961 11.259 12.25 11.375 12.25C11.491 12.25 11.6023 12.2961 11.6844 12.3781C11.7664 12.4602 11.8125 12.5715 11.8125 12.6875V13.5625C11.8125 13.6785 11.7664 13.7898 11.6844 13.8719C11.6023 13.9539 11.491 14 11.375 14C11.259 14 11.1477 13.9539 11.0656 13.8719C10.9836 13.7898 10.9375 13.6785 10.9375 13.5625V12.6875ZM19.3681 17.5H8.63187C8.38667 17.4875 8.14646 17.5724 7.96367 17.7364C7.78089 17.9003 7.67037 18.1299 7.65625 18.375V27.5625C7.6566 27.6784 7.7028 27.7895 7.78477 27.8715C7.86675 27.9534 7.97782 27.9997 8.09375 28H19.9062C20.0222 27.9997 20.1333 27.9534 20.2152 27.8715C20.2972 27.7895 20.3434 27.6784 20.3438 27.5625V18.375C20.3296 18.1299 20.2191 17.9003 20.0363 17.7364C19.8535 17.5724 19.6133 17.4875 19.3681 17.5ZM19.4688 27.125H8.53125V18.4034L19.3681 18.375C19.4038 18.3737 19.439 18.3837 19.4688 18.4034V27.125Z" fill="#999999"/>
<path d="M14 19.6875C13.884 19.6875 13.7727 19.7336 13.6906 19.8156C13.6086 19.8977 13.5625 20.009 13.5625 20.125V25.375C13.5625 25.491 13.6086 25.6023 13.6906 25.6844C13.7727 25.7664 13.884 25.8125 14 25.8125C14.116 25.8125 14.2273 25.7664 14.3094 25.6844C14.3914 25.6023 14.4375 25.491 14.4375 25.375V20.125C14.4375 20.009 14.3914 19.8977 14.3094 19.8156C14.2273 19.7336 14.116 19.6875 14 19.6875ZM12.25 21.875C12.134 21.875 12.0227 21.9211 11.9406 22.0031C11.8586 22.0852 11.8125 22.1965 11.8125 22.3125V23.1875C11.8125 23.3035 11.8586 23.4148 11.9406 23.4969C12.0227 23.5789 12.134 23.625 12.25 23.625C12.366 23.625 12.4773 23.5789 12.5594 23.4969C12.6414 23.4148 12.6875 23.3035 12.6875 23.1875V22.3125C12.6875 22.1965 12.6414 22.0852 12.5594 22.0031C12.4773 21.9211 12.366 21.875 12.25 21.875ZM15.75 21.875C15.634 21.875 15.5227 21.9211 15.4406 22.0031C15.3586 22.0852 15.3125 22.1965 15.3125 22.3125V23.1875C15.3125 23.3035 15.3586 23.4148 15.4406 23.4969C15.5227 23.5789 15.634 23.625 15.75 23.625C15.866 23.625 15.9773 23.5789 16.0594 23.4969C16.1414 23.4148 16.1875 23.3035 16.1875 23.1875V22.3125C16.1875 22.1965 16.1414 22.0852 16.0594 22.0031C15.9773 21.9211 15.866 21.875 15.75 21.875ZM1.75 17.9375C1.67326 17.9375 1.59787 17.9577 1.53144 17.9961C1.465 18.0345 1.40986 18.0897 1.37156 18.1562H2.12844C2.09014 18.0897 2.035 18.0345 1.96856 17.9961C1.90213 17.9577 1.82674 17.9375 1.75 17.9375ZM0.875 22.5312H6.78125V19.0312H0.875C0.760085 19.0312 0.646291 19.0538 0.540118 19.0978C0.433945 19.1418 0.337474 19.2062 0.256218 19.2875C0.174961 19.3687 0.11051 19.4652 0.0665469 19.5714C0.0225842 19.6775 -2.87121e-05 19.7913 2.73599e-08 19.9062V21.6562C-2.87121e-05 21.7712 0.0225842 21.885 0.0665469 21.9911C0.11051 22.0973 0.174961 22.1938 0.256218 22.275C0.337474 22.3563 0.433945 22.4207 0.540118 22.4647C0.646291 22.5087 0.760085 22.5313 0.875 22.5312ZM1.37156 23.625H2.12844C2.09016 23.5585 2.03502 23.5032 1.96858 23.4648C1.90214 23.4264 1.82675 23.4062 1.75 23.4062C1.67325 23.4062 1.59786 23.4264 1.53142 23.4648C1.46498 23.5032 1.40984 23.5585 1.37156 23.625ZM6.80094 27.7769C6.78778 27.7062 6.78119 27.6344 6.78125 27.5625V24.5H0.875C0.760085 24.5 0.646291 24.5226 0.540118 24.5665C0.433945 24.6105 0.337474 24.675 0.256218 24.7562C0.174961 24.8375 0.11051 24.9339 0.0665469 25.0401C0.0225842 25.1463 -2.87121e-05 25.2601 2.73599e-08 25.375V27.125C-2.87121e-05 27.2399 0.0225842 27.3537 0.0665469 27.4599C0.11051 27.5661 0.174961 27.6625 0.256218 27.7438C0.337474 27.825 0.433945 27.8895 0.540118 27.9335C0.646291 27.9774 0.760085 28 0.875 28H6.85781C6.83396 27.9331 6.81567 27.8643 6.80313 27.7944C6.80133 27.7887 6.80059 27.7828 6.80094 27.7769ZM26.0312 23.4062C25.9545 23.4062 25.8791 23.4265 25.8127 23.4649C25.7462 23.5033 25.6911 23.5585 25.6528 23.625H26.4097C26.3714 23.5585 26.3163 23.5033 26.2498 23.4649C26.1834 23.4265 26.108 23.4062 26.0312 23.4062ZM27.125 24.5H21.2188V27.5625C21.2188 27.6344 21.2122 27.7062 21.1991 27.7769C21.1994 27.7828 21.1987 27.7887 21.1969 27.7944C21.1843 27.8643 21.166 27.9331 21.1422 28H27.125C27.2399 28 27.3537 27.9774 27.4599 27.9335C27.5661 27.8895 27.6625 27.825 27.7438 27.7438C27.825 27.6625 27.8895 27.5661 27.9335 27.4599C27.9774 27.3537 28 27.2399 28 27.125V25.375C28 25.2601 27.9774 25.1463 27.9335 25.0401C27.8895 24.9339 27.825 24.8375 27.7438 24.7562C27.6625 24.675 27.5661 24.6105 27.4599 24.5665C27.3537 24.5226 27.2399 24.5 27.125 24.5Z" fill="#999999"/>
</svg>
