<svg width="21" height="26" viewBox="0 0 21 26" fill="none" xmlns="http://www.w3.org/2000/svg">
<path d="M20.1975 4.9061C20.0587 5.03956 19.8665 5.11964 19.6583 5.11964H16.4498C16.0875 5.11907 15.7402 4.9749 15.4841 4.71873C15.2279 4.46255 15.0837 4.11526 15.0832 3.75298V0.523175C15.0832 0.32565 15.1579 0.138801 15.2807 0H1.36317C0.813304 0 0.364868 0.448436 0.364868 0.998303V24.1675C0.364868 24.7173 0.813304 25.1658 1.36317 25.1658H19.2045C19.7544 25.1658 20.2028 24.7173 20.2028 24.1621V4.96482C20.2028 4.94347 20.2028 4.92745 20.1975 4.9061ZM5.08412 6.95609C5.09479 6.87601 5.10547 6.80127 5.12149 6.72119C5.1375 6.61442 5.15352 6.51299 5.17487 6.40622C5.19623 6.31013 5.22292 6.2087 5.24961 6.1126C5.27096 6.03786 5.29232 5.96312 5.31901 5.88838C5.35638 5.77628 5.39375 5.66951 5.43646 5.56273C5.45781 5.50935 5.48451 5.45596 5.50586 5.40258C5.55924 5.28513 5.61263 5.16768 5.67135 5.05558C5.69271 5.02354 5.71406 4.99151 5.73008 4.95948C5.93465 4.59369 6.18391 4.25477 6.47213 3.9505C6.52018 3.89712 6.56822 3.84373 6.61627 3.79569L6.82447 3.6035C6.90455 3.53944 6.97929 3.47537 7.05937 3.41131C7.0914 3.38462 7.11809 3.35793 7.15546 3.33123C7.16614 3.32056 7.17682 3.32056 7.18749 3.31522C7.72052 2.9203 8.32382 2.63042 8.96522 2.46106C8.98123 2.45572 8.98657 2.44504 8.99725 2.44504C9.03462 2.43436 9.06665 2.43436 9.10402 2.42369C9.23748 2.39166 9.37628 2.36496 9.51508 2.34361C9.57381 2.33827 9.63787 2.32226 9.70193 2.31692C9.89946 2.29556 10.1023 2.27955 10.3052 2.27955C10.5134 2.27955 10.7109 2.29556 10.9138 2.31692C10.9778 2.32226 11.0366 2.33827 11.1006 2.34361C11.2394 2.36496 11.3729 2.39166 11.5064 2.42369C11.5437 2.43436 11.5811 2.43436 11.6131 2.44504C11.6238 2.44504 11.6345 2.45572 11.6452 2.46106C12.2965 2.63189 12.8997 2.92551 13.4229 3.31522C13.4389 3.32056 13.4496 3.32056 13.4602 3.33123L13.5563 3.41131C13.6364 3.47537 13.7112 3.53944 13.7859 3.6035L13.9941 3.79569C14.0421 3.84373 14.0902 3.89712 14.1382 3.9505C14.4265 4.2548 14.6774 4.59646 14.8803 4.95948C14.9016 4.99151 14.923 5.02354 14.939 5.05558C14.9977 5.16768 15.0565 5.28513 15.1045 5.40258C15.1761 5.56138 15.24 5.72349 15.2962 5.88838L15.3602 6.1126C15.3869 6.2087 15.4147 6.31013 15.436 6.40622C15.4627 6.51299 15.4777 6.61442 15.4942 6.72119C15.5049 6.80127 15.5209 6.87601 15.5263 6.95609C15.5476 7.14294 15.5636 7.33512 15.5636 7.53265C15.5636 8.77652 15.1205 9.98837 14.3144 10.9386C13.8198 11.5189 13.2052 11.985 12.5131 12.3048C11.8209 12.6246 11.0676 12.7905 10.3052 12.7911C8.76236 12.7911 7.2996 12.1131 6.3013 10.9386C5.83874 10.3922 5.49228 9.75725 5.28303 9.07257C5.07377 8.38788 5.00609 7.66777 5.08412 6.95609ZM17.6152 22.4324H2.99782C2.92703 22.4324 2.85914 22.4043 2.80908 22.3543C2.75902 22.3042 2.7309 22.2363 2.7309 22.1655C2.7309 22.0947 2.75902 22.0268 2.80908 21.9768C2.85914 21.9267 2.92703 21.8986 2.99782 21.8986H17.6147C17.6855 21.8986 17.7534 21.9267 17.8034 21.9768C17.8535 22.0268 17.8816 22.0947 17.8816 22.1655C17.8816 22.2363 17.8535 22.3042 17.8034 22.3543C17.7534 22.4043 17.6855 22.4324 17.6147 22.4324M17.6147 20.0157H2.99782C2.92703 20.0157 2.85914 19.9876 2.80908 19.9375C2.75902 19.8875 2.7309 19.8196 2.7309 19.7488C2.7309 19.678 2.75902 19.6101 2.80908 19.56C2.85914 19.51 2.92703 19.4819 2.99782 19.4819H17.6147C17.6855 19.4819 17.7534 19.51 17.8034 19.56C17.8535 19.6101 17.8816 19.678 17.8816 19.7488C17.8816 19.8196 17.8535 19.8875 17.8034 19.9375C17.7534 19.9876 17.6855 20.0157 17.6147 20.0157ZM17.6147 17.5974H2.99782C2.92703 17.5974 2.85914 17.5692 2.80908 17.5192C2.75902 17.4691 2.7309 17.4012 2.7309 17.3304C2.7309 17.2596 2.75902 17.1917 2.80908 17.1417C2.85914 17.0916 2.92703 17.0635 2.99782 17.0635H17.6147C17.6855 17.0635 17.7534 17.0916 17.8034 17.1417C17.8535 17.1917 17.8816 17.2596 17.8816 17.3304C17.8816 17.4012 17.8535 17.4691 17.8034 17.5192C17.7534 17.5692 17.6855 17.5974 17.6147 17.5974ZM17.6147 15.1801H2.99782C2.92703 15.1801 2.85914 15.152 2.80908 15.1019C2.75902 15.0518 2.7309 14.9839 2.7309 14.9131C2.7309 14.8424 2.75902 14.7745 2.80908 14.7244C2.85914 14.6743 2.92703 14.6462 2.99782 14.6462H17.6147C17.6855 14.6462 17.7534 14.6743 17.8034 14.7244C17.8535 14.7745 17.8816 14.8424 17.8816 14.9131C17.8816 14.9839 17.8535 15.0518 17.8034 15.1019C17.7534 15.152 17.6855 15.1801 17.6147 15.1801Z" fill="#999999"/>
<path d="M9.96352 8.93668C10.081 8.95803 10.1931 8.96337 10.3105 8.96337C10.901 8.96317 11.4673 8.72897 11.8854 8.31207C12.3872 7.80491 12.6168 7.10557 12.5047 6.3902C12.3659 5.44529 11.6024 4.68188 10.6575 4.53774C10.3085 4.48044 9.95082 4.50775 9.61454 4.61737C9.27826 4.72698 8.9732 4.91571 8.72499 5.16768C8.21783 5.68018 7.99361 6.38487 8.10572 7.10557C8.26053 8.04514 9.02394 8.80321 9.96352 8.93668Z" fill="#999999"/>
<path d="M10.3052 11.7234C11.5384 11.7234 12.7022 11.1842 13.503 10.2446C13.6685 10.0471 13.8179 9.83355 13.9461 9.60399C13.583 9.06844 13.039 8.68176 12.4139 8.51493C12.3712 8.57366 12.3178 8.63238 12.2644 8.68577C11.7464 9.20455 11.0436 9.49643 10.3105 9.49722C10.1931 9.49722 10.0383 9.49188 9.86743 9.45985C9.20545 9.3691 8.61288 9.01675 8.19113 8.51493C7.56766 8.68236 7.02669 9.07149 6.66966 9.60933C6.79778 9.83355 6.94726 10.0471 7.11275 10.2446C7.50592 10.7077 7.99506 11.0799 8.54629 11.3352C9.09753 11.5905 9.69768 11.723 10.3052 11.7234ZM16.4488 4.58418H19.6599C19.7307 4.58418 19.7986 4.55606 19.8486 4.506C19.8987 4.45595 19.9268 4.38805 19.9268 4.31726L15.8855 0.25785C15.8147 0.25785 15.7469 0.285973 15.6968 0.336031C15.6467 0.386089 15.6186 0.453983 15.6186 0.524776V3.75458C15.6186 4.21209 15.9918 4.58418 16.4488 4.58418Z" fill="#999999"/>
</svg>
