<svg width="26" height="31" viewBox="0 0 26 31" fill="none" xmlns="http://www.w3.org/2000/svg">
<path d="M13.2041 0.00976562C9.91753 0.0134568 6.76659 1.32069 4.44261 3.64467C2.11863 5.96865 0.8114 9.11959 0.807709 12.4062C0.807709 17.45 4.4693 21.6384 8.34783 26.0717C9.57508 27.4756 10.8457 28.9275 11.9769 30.3965C12.1216 30.5843 12.3076 30.7363 12.5203 30.841C12.7331 30.9456 12.967 31 13.2041 31C13.4412 31 13.6752 30.9456 13.8879 30.841C14.1007 30.7363 14.2866 30.5843 14.4314 30.3965C15.5626 28.9275 16.8332 27.4756 18.0604 26.0717C21.939 21.6384 25.6006 17.45 25.6006 12.4062C25.5969 9.11959 24.2896 5.96865 21.9657 3.64467C19.6417 1.32069 16.4907 0.0134568 13.2041 0.00976562ZM13.2041 17.0548C12.2847 17.0548 11.3859 16.7822 10.6215 16.2714C9.85701 15.7606 9.26118 15.0346 8.90933 14.1852C8.55749 13.3357 8.46543 12.401 8.6448 11.4993C8.82417 10.5975 9.26691 9.76922 9.91703 9.11909C10.5672 8.46896 11.3955 8.02622 12.2972 7.84685C13.199 7.66748 14.1337 7.75954 14.9831 8.11139C15.8325 8.46323 16.5585 9.05906 17.0694 9.82353C17.5802 10.588 17.8528 11.4868 17.8528 12.4062C17.8528 13.6391 17.363 14.8215 16.4912 15.6933C15.6194 16.5651 14.437 17.0548 13.2041 17.0548Z" fill="#999999"/>
</svg>
