<svg width="21" height="20" viewBox="0 0 21 20" fill="none" xmlns="http://www.w3.org/2000/svg">
<path d="M15.5431 0.842651C16.896 0.842651 18.1975 1.37736 19.1549 2.33681C20.1134 3.29423 20.6491 4.5856 20.6491 5.93751V13.9077C20.6491 16.7225 18.3589 19.0025 15.5431 19.0025H5.57638C2.76059 19.0025 0.471436 16.7225 0.471436 13.9077V5.93751C0.471436 3.12273 2.7505 0.842651 5.57638 0.842651H15.5431ZM16.6842 6.08884C16.4723 6.07774 16.2705 6.14937 16.1182 6.29062L11.5691 9.92259C10.984 10.4079 10.1456 10.4079 9.55138 9.92259L5.01141 6.29062C4.69764 6.05857 4.26382 6.08884 4.00252 6.36124C3.73013 6.63363 3.69986 7.06745 3.93089 7.37012L4.06306 7.50127L8.65347 11.0828C9.21844 11.5267 9.90348 11.7688 10.6208 11.7688C11.3361 11.7688 12.0332 11.5267 12.5972 11.0828L17.1483 7.44074L17.229 7.36003C17.4701 7.06745 17.4701 6.64372 17.2179 6.35115C17.0776 6.20082 16.8849 6.10902 16.6842 6.08884Z" fill="#8B8E9C"/>
</svg>
