<svg width="20" height="28" viewBox="0 0 20 28" fill="none" xmlns="http://www.w3.org/2000/svg">
<g clip-path="url(#clip0_322_2)">
<path fill-rule="evenodd" clip-rule="evenodd" d="M7.1667 0.777786C6.1234 0.777786 5.2778 1.62344 5.2778 2.66668H2.44444C1.40121 2.66668 0.555557 3.51233 0.555557 4.55557V25.3333C0.555557 26.3766 1.40121 27.2222 2.44444 27.2222H17.5556C18.5988 27.2222 19.4444 26.3766 19.4444 25.3333V4.55557C19.4444 3.51233 18.5988 2.66668 17.5556 2.66668H14.7222C14.7222 1.62344 13.8766 0.777786 12.8333 0.777786H7.1667ZM7.1667 2.66668H12.8333V4.55557H7.1667V2.66668ZM10.5262 17.7778L8.1714 24.0574C7.9882 24.5458 8.2357 25.0901 8.7241 25.2733C9.2124 25.4565 9.7568 25.209 9.94 24.7206L11.1284 21.5513H13.594L14.7825 24.7206C14.9656 25.209 15.51 25.4565 15.9984 25.2733C16.4868 25.0901 16.7343 24.5458 16.5511 24.0574L14.1963 17.7778H16.8957C17.4173 17.7778 17.8401 17.3549 17.8401 16.8333C17.8401 16.3117 17.4173 15.8889 16.8957 15.8889H12.8514C12.8394 15.8887 12.8273 15.8887 12.8153 15.8889H11.9071C11.8951 15.8887 11.8831 15.8887 11.8711 15.8889H7.1669C6.6453 15.8889 6.2224 16.3117 6.2224 16.8333C6.2224 17.3549 6.6453 17.7778 7.1669 17.7778H10.5262ZM16.6111 9.50441H3.3889V7.61561H16.6111V9.50441ZM3.3889 13.4333H8.1111V11.5444H3.3889V13.4333ZM14.25 13.0556C14.25 14.0988 13.4043 14.9444 12.3611 14.9444C11.3179 14.9444 10.4722 14.0988 10.4722 13.0556C10.4722 12.0123 11.3179 11.1667 12.3611 11.1667C13.4043 11.1667 14.25 12.0123 14.25 13.0556Z" fill="#999999"/>
</g>
<defs>
<clipPath id="clip0_322_2">
<rect width="20" height="28" fill="white"/>
</clipPath>
</defs>
</svg>
