<svg width="20" height="28" viewBox="0 0 20 28" fill="none" xmlns="http://www.w3.org/2000/svg">
<path fill-rule="evenodd" clip-rule="evenodd" d="M7.16667 0.777778C6.12343 0.777778 5.27778 1.62343 5.27778 2.66667H2.44444C1.40121 2.66667 0.555555 3.51232 0.555555 4.55556V25.3333C0.555555 26.3766 1.40121 27.2222 2.44444 27.2222H17.5556C18.5988 27.2222 19.4444 26.3766 19.4444 25.3333V4.55556C19.4444 3.51232 18.5988 2.66667 17.5556 2.66667H14.7222C14.7222 1.62343 13.8766 0.777778 12.8333 0.777778H7.16667ZM7.16667 2.66667H12.8333V4.55556H7.16667V2.66667ZM10.5262 17.7778L8.17137 24.0574C7.98824 24.5458 8.23568 25.0901 8.72406 25.2733C9.21243 25.4565 9.75681 25.209 9.94003 24.7206L11.1284 21.5513H13.594L14.7825 24.7206C14.9656 25.209 15.51 25.4565 15.9984 25.2733C16.4868 25.0901 16.7343 24.5458 16.5511 24.0574L14.1963 17.7778H16.8957C17.4173 17.7778 17.8401 17.3549 17.8401 16.8333C17.8401 16.3117 17.4173 15.8889 16.8957 15.8889H12.8514C12.8394 15.8887 12.8273 15.8887 12.8153 15.8889H11.9071C11.8951 15.8887 11.8831 15.8887 11.8711 15.8889H7.16685C6.64533 15.8889 6.22241 16.3117 6.22241 16.8333C6.22241 17.3549 6.64533 17.7778 7.16685 17.7778H10.5262ZM16.6111 9.50444H3.38889V7.61556H16.6111V9.50444ZM3.38889 13.4333H8.11111V11.5444H3.38889V13.4333ZM14.25 13.0556C14.25 14.0988 13.4043 14.9444 12.3611 14.9444C11.3179 14.9444 10.4722 14.0988 10.4722 13.0556C10.4722 12.0123 11.3179 11.1667 12.3611 11.1667C13.4043 11.1667 14.25 12.0123 14.25 13.0556Z" fill="#334155"/>
</svg>
