<svg width="13" height="13" viewBox="0 0 13 13" fill="none" xmlns="http://www.w3.org/2000/svg">
<path d="M11.9245 10.9684L9.63521 8.68582C10.3738 7.74483 10.7746 6.58282 10.7731 5.38656C10.7731 4.3212 10.4572 3.27976 9.86532 2.39395C9.27343 1.50813 8.43217 0.817725 7.4479 0.41003C6.46364 0.00233391 5.38058 -0.104338 4.33569 0.103504C3.2908 0.311345 2.33101 0.824365 1.57769 1.57769C0.824365 2.33101 0.311345 3.2908 0.103504 4.33569C-0.104338 5.38058 0.00233391 6.46364 0.41003 7.4479C0.817725 8.43217 1.50813 9.27343 2.39395 9.86532C3.27976 10.4572 4.3212 10.7731 5.38656 10.7731C6.58282 10.7746 7.74483 10.3738 8.68582 9.63521L10.9684 11.9245C11.031 11.9876 11.1054 12.0377 11.1875 12.0719C11.2695 12.1061 11.3575 12.1237 11.4464 12.1237C11.5353 12.1237 11.6233 12.1061 11.7054 12.0719C11.7874 12.0377 11.8619 11.9876 11.9245 11.9245C11.9876 11.8619 12.0377 11.7874 12.0719 11.7054C12.1061 11.6233 12.1237 11.5353 12.1237 11.4464C12.1237 11.3575 12.1061 11.2695 12.0719 11.1875C12.0377 11.1054 11.9876 11.031 11.9245 10.9684ZM1.34664 5.38656C1.34664 4.58754 1.58358 3.80646 2.02749 3.1421C2.4714 2.47774 3.10235 1.95993 3.84055 1.65416C4.57875 1.34839 5.39104 1.26839 6.17471 1.42427C6.95837 1.58015 7.67822 1.96491 8.24321 2.52991C8.8082 3.0949 9.19297 3.81474 9.34885 4.59841C9.50473 5.38208 9.42473 6.19437 9.11896 6.93257C8.81318 7.67077 8.29538 8.30171 7.63102 8.74563C6.96666 9.18954 6.18558 9.42648 5.38656 9.42648C4.31511 9.42648 3.28754 9.00084 2.52991 8.24321C1.77227 7.48558 1.34664 6.45801 1.34664 5.38656Z" fill="#595C64"/>
</svg>
