<svg width="22" height="28" viewBox="0 0 22 28" fill="none" xmlns="http://www.w3.org/2000/svg">
<path d="M14.4886 18.1301C15.5473 17.3559 16.3629 16.2956 16.8396 15.0738C16.2101 15.5705 15.4313 15.8399 14.6294 15.8381C14.0868 15.8396 13.5494 15.7334 13.0481 15.5258C12.5468 15.3181 12.0917 15.0131 11.7091 14.6284C11.5822 14.5099 11.415 14.444 11.2414 14.444C11.0677 14.444 10.9005 14.5099 10.7736 14.6284C10.391 15.0131 9.9359 15.3181 9.43464 15.5258C8.93337 15.7334 8.3959 15.8396 7.85334 15.8381C7.05127 15.8393 6.27235 15.5693 5.64314 15.0719C6.11939 16.2945 6.93507 17.3556 7.99414 18.1301L8.97878 18.8468C9.64003 19.316 10.4308 19.5681 11.2416 19.5681C12.0524 19.5681 12.8432 19.316 13.5044 18.8468L14.4886 18.1301Z" fill="#999999"/>
<path d="M17.7901 6.01498H4.69264C4.4343 6.01498 4.22487 6.22441 4.22487 6.48275V7.41828C4.22487 7.67662 4.4343 7.88605 4.69264 7.88605H17.7901C18.0484 7.88605 18.2579 7.67662 18.2579 7.41828V6.48275C18.2579 6.22441 18.0484 6.01498 17.7901 6.01498Z" fill="#999999"/>
<path d="M9.07982 20.0012C9.25542 20.4303 9.55475 20.7974 9.93969 21.0558C10.3246 21.3142 10.7778 21.4521 11.2414 21.4521C11.705 21.4521 12.1581 21.3142 12.5431 21.0558C12.928 20.7974 13.2273 20.4303 13.4029 20.0012C12.7328 20.3401 11.9923 20.5167 11.2414 20.5167C10.4904 20.5167 9.74997 20.3401 9.07982 20.0012ZM11.6254 0.869553H10.8573C9.59666 0.86919 8.37027 1.28006 7.36426 2.03983C6.35825 2.79959 5.62752 3.86678 5.28296 5.07945H17.1998C16.8552 3.86678 16.1245 2.79959 15.1185 2.03983C14.1125 1.28006 12.8861 0.86919 11.6254 0.869553ZM18.2579 12.5637C18.2577 12.8764 18.2386 13.1888 18.2008 13.4992H18.2579C18.63 13.4992 18.987 13.3514 19.2501 13.0882C19.5133 12.8251 19.6612 12.4681 19.6612 12.0959C19.6612 11.7238 19.5133 11.3668 19.2501 11.1037C18.987 10.8405 18.63 10.6926 18.2579 10.6926V12.5637ZM4.22487 13.4992H4.28194C4.24412 13.1888 4.22507 12.8764 4.22487 12.5637V10.6926C3.8527 10.6926 3.49576 10.8405 3.23259 11.1037C2.96942 11.3668 2.82157 11.7238 2.82157 12.0959C2.82157 12.4681 2.96942 12.8251 3.23259 13.0882C3.49576 13.3514 3.8527 13.4992 4.22487 13.4992ZM17.3223 12.5637V10.6926H5.16041V12.5637C5.1607 12.8274 5.17632 13.0909 5.20718 13.3528L5.98181 14.1275C6.22694 14.3739 6.51853 14.5694 6.8397 14.7024C7.16087 14.8355 7.50524 14.9035 7.85287 14.9025C8.27254 14.9037 8.68828 14.8216 9.07601 14.6611C9.46374 14.5005 9.81577 14.2646 10.1117 13.967C10.4161 13.677 10.8205 13.5153 11.2409 13.5153C11.6613 13.5153 12.0657 13.677 12.3701 13.967C12.666 14.2646 13.0181 14.5005 13.4058 14.6611C13.7935 14.8216 14.2093 14.9037 14.6289 14.9025C14.9766 14.9035 15.3209 14.8355 15.6421 14.7024C15.9633 14.5694 16.2549 14.3739 16.5 14.1275L17.2756 13.3528C17.3064 13.0909 17.322 12.8274 17.3223 12.5637ZM9.37031 12.3298C9.37031 12.64 9.2471 12.9374 9.02779 13.1567C8.80848 13.376 8.51104 13.4992 8.20089 13.4992C7.89074 13.4992 7.59329 13.376 7.37399 13.1567C7.15468 12.9374 7.03147 12.64 7.03147 12.3298V11.6282L9.37031 12.0959V12.3298ZM15.4513 12.3298C15.4513 12.64 15.3281 12.9374 15.1088 13.1567C14.8894 13.376 14.592 13.4992 14.2819 13.4992C13.9717 13.4992 13.6743 13.376 13.455 13.1567C13.2356 12.9374 13.1124 12.64 13.1124 12.3298V12.0959L15.4513 11.6282V12.3298Z" fill="#999999"/>
<path d="M17.3223 8.82158H5.16041V9.75712H17.3223V8.82158Z" fill="#999999"/>
<path d="M14.475 19.6017C14.3591 20.3764 13.9689 21.0837 13.3754 21.595C12.782 22.1062 12.0247 22.3874 11.2414 22.3874C10.4581 22.3874 9.70078 22.1062 9.10731 21.595C8.51385 21.0837 8.12365 20.3764 8.0077 19.6017C5.97753 19.7116 4.06648 20.5946 2.66704 22.0695C1.26759 23.5444 0.485988 25.4991 0.482742 27.5322V28H4.22487V24.7256H5.16041V28H17.3223V24.7256H18.2579V28H22V27.5322C21.9968 25.4991 21.2151 23.5444 19.8157 22.0695C18.4163 20.5946 16.5052 19.7116 14.475 19.6017Z" fill="#999999"/>
</svg>
