<svg width="22" height="28" viewBox="0 0 22 28" fill="none" xmlns="http://www.w3.org/2000/svg">
<path d="M14.0059 17.2606C15.0645 16.4864 15.8801 15.426 16.3569 14.2042C15.7274 14.7009 14.9485 14.9703 14.1467 14.9685C13.6041 14.97 13.0666 14.8639 12.5654 14.6562C12.0641 14.4486 11.609 14.1436 11.2264 13.7589C11.0995 13.6403 10.9323 13.5744 10.7586 13.5744C10.585 13.5744 10.4178 13.6403 10.2909 13.7589C9.90826 14.1436 9.45316 14.4486 8.9519 14.6562C8.45063 14.8639 7.91316 14.97 7.3706 14.9685C6.56852 14.9698 5.7896 14.6997 5.1604 14.2023C5.63665 15.4249 6.45233 16.486 7.51139 17.2606L8.49604 17.9772C9.15728 18.4464 9.94805 18.6985 10.7589 18.6985C11.5697 18.6985 12.3604 18.4464 13.0217 17.9772L14.0059 17.2606Z" fill="#334155"/>
<path d="M17.3074 5.14543H4.2099C3.95156 5.14543 3.74213 5.35486 3.74213 5.6132V6.54873C3.74213 6.80707 3.95156 7.0165 4.2099 7.0165H17.3074C17.5657 7.0165 17.7751 6.80707 17.7751 6.54873V5.6132C17.7751 5.35486 17.5657 5.14543 17.3074 5.14543Z" fill="#334155"/>
<path d="M8.59708 19.1317C8.77268 19.5607 9.07201 19.9278 9.45694 20.1862C9.84188 20.4446 10.295 20.5826 10.7586 20.5826C11.2222 20.5826 11.6754 20.4446 12.0603 20.1862C12.4453 19.9278 12.7446 19.5607 12.9202 19.1317C12.25 19.4705 11.5096 19.6471 10.7586 19.6471C10.0077 19.6471 9.26723 19.4705 8.59708 19.1317ZM11.1427 2.39772e-07H10.3746C9.11392 -0.000362344 7.88753 0.41051 6.88152 1.17027C5.87551 1.93004 5.14478 2.99722 4.80022 4.2099H16.717C16.3725 2.99722 15.6418 1.93004 14.6357 1.17027C13.6297 0.41051 12.4033 -0.000362344 11.1427 2.39772e-07ZM17.7751 11.6942C17.7749 12.0069 17.7559 12.3193 17.7181 12.6297H17.7751C18.1473 12.6297 18.5042 12.4818 18.7674 12.2187C19.0306 11.9555 19.1784 11.5986 19.1784 11.2264C19.1784 10.8542 19.0306 10.4973 18.7674 10.2341C18.5042 9.97094 18.1473 9.8231 17.7751 9.8231V11.6942ZM3.74213 12.6297H3.7992C3.76138 12.3193 3.74233 12.0069 3.74213 11.6942V9.8231C3.36995 9.8231 3.01302 9.97094 2.74985 10.2341C2.48668 10.4973 2.33883 10.8542 2.33883 11.2264C2.33883 11.5986 2.48668 11.9555 2.74985 12.2187C3.01302 12.4818 3.36995 12.6297 3.74213 12.6297ZM16.8396 11.6942V9.8231H4.67766V11.6942C4.67796 11.9579 4.69358 12.2214 4.72444 12.4833L5.49906 13.2579C5.7442 13.5044 6.03579 13.6998 6.35696 13.8329C6.67813 13.9659 7.0225 14.0339 7.37013 14.033C7.7898 14.0342 8.20553 13.9521 8.59327 13.7915C8.981 13.6309 9.33303 13.395 9.62897 13.0975C9.9334 12.8075 10.3377 12.6457 10.7582 12.6457C11.1786 12.6457 11.5829 12.8075 11.8873 13.0975C12.1833 13.395 12.5353 13.6309 12.9231 13.7915C13.3108 13.9521 13.7265 14.0342 14.1462 14.033C14.4938 14.0339 14.8382 13.9659 15.1594 13.8329C15.4805 13.6998 15.7721 13.5044 16.0173 13.2579L16.7928 12.4833C16.8237 12.2214 16.8393 11.9579 16.8396 11.6942ZM8.88756 11.4603C8.88756 11.7704 8.76436 12.0679 8.54505 12.2872C8.32574 12.5065 8.0283 12.6297 7.71815 12.6297C7.408 12.6297 7.11055 12.5065 6.89124 12.2872C6.67194 12.0679 6.54873 11.7704 6.54873 11.4603V10.7586L8.88756 11.2264V11.4603ZM14.9685 11.4603C14.9685 11.7704 14.8453 12.0679 14.626 12.2872C14.4067 12.5065 14.1093 12.6297 13.7991 12.6297C13.489 12.6297 13.1915 12.5065 12.9722 12.2872C12.7529 12.0679 12.6297 11.7704 12.6297 11.4603V11.2264L14.9685 10.7586V11.4603Z" fill="#334155"/>
<path d="M16.8396 7.95203H4.67766V8.88756H16.8396V7.95203Z" fill="#334155"/>
<path d="M13.9923 18.7322C13.8764 19.5069 13.4861 20.2142 12.8927 20.7254C12.2992 21.2367 11.5419 21.5179 10.7586 21.5179C9.97532 21.5179 9.21804 21.2367 8.62457 20.7254C8.03111 20.2142 7.64091 19.5069 7.52496 18.7322C5.49479 18.842 3.58374 19.7251 2.1843 21.2C0.784852 22.6748 0.00324611 24.6295 0 26.6627V27.1305H3.74213V23.8561H4.67766V27.1305H16.8396V23.8561H17.7751V27.1305H21.5173V26.6627C21.514 24.6295 20.7324 22.6748 19.333 21.2C17.9335 19.7251 16.0225 18.842 13.9923 18.7322Z" fill="#334155"/>
</svg>
